<svg width="1039" height="899" viewBox="0 0 1039 899" fill="none" xmlns="http://www.w3.org/2000/svg">
<g id="undraw_a_moment_to_relax_bbpa">
<g clip-path="url(#clip0)">
<path id="Vector" d="M209.484 745.979C209.484 745.979 214.484 724.979 249.484 731.979C284.484 738.979 289.484 745.979 289.484 745.979H209.484Z" fill="#3F3D56"/>
<path id="Vector_2" d="M913.484 754.979C913.484 754.979 885.484 737.979 873.484 754.979H913.484Z" fill="#3F3D56"/>
<path id="Vector_3" d="M256.984 757.979C256.984 757.979 228.984 740.979 216.984 757.979H256.984Z" fill="#3F3D56"/>
<path id="Vector_4" d="M905.984 761.479C905.984 761.479 910.983 740.479 945.983 747.479C980.983 754.479 985.983 761.479 985.983 761.479H905.984Z" fill="#3F3D56"/>
<path id="Vector_5" d="M1050 761C989.8 757.404 931.918 754.345 876.355 751.824L897.752 735.496C890.325 734.551 858.142 743.997 858.142 743.997L885.374 696.767C848.24 698.656 830.911 746.831 830.911 746.831L788.826 730.773L809.542 748.954C639.516 742.137 492.799 740.009 369.468 740.497L387.781 726.522C380.355 725.577 348.172 735.023 348.172 735.023L375.403 687.793C338.27 689.682 320.941 737.857 320.941 737.857L278.856 721.799L300.798 741.055C216.317 741.992 132.017 744.582 48.2323 748.816C66.5059 727.094 130.321 706.213 130.321 706.213C81.2531 712.038 55.726 721.527 42.5134 730.324C39.8407 685.697 57.8331 641.24 95.6624 599C95.6624 599 -3.36094 684.015 11.4926 740.691L13.3772 750.759C-72.7716 755.887 -116 761 -116 761H1050Z" fill="#00BF72"/>
<path id="Vector_6" d="M939.372 759.438L937.595 758.52C960.677 713.896 948.334 655.945 933.916 615.188C924.126 587.793 911.639 561.439 896.638 536.513L898.329 535.445C913.407 560.497 925.959 586.986 935.801 614.52C950.352 655.65 962.781 714.179 939.372 759.438Z" fill="#3F3D56"/>
<path id="Vector_7" d="M982.491 563.803L969.516 634.808L971.483 635.167L984.458 564.163L982.491 563.803Z" fill="#3F3D56"/>
<path id="Vector_8" d="M875.216 614.297L873.751 615.66L940.751 687.661L942.216 686.298L875.216 614.297Z" fill="#3F3D56"/>
<path id="Vector_9" d="M984.665 703.387L950.681 750.399L952.302 751.571L986.286 704.559L984.665 703.387Z" fill="#3F3D56"/>
<path id="c1" d="M988.484 544.979C994.006 544.979 998.484 540.502 998.484 534.979C998.484 529.456 994.006 524.979 988.484 524.979C982.961 524.979 978.484 529.456 978.484 534.979C978.484 540.502 982.961 544.979 988.484 544.979Z" fill="#6C63FF"/>
<path id="c2" d="M859.484 605.979C865.006 605.979 869.484 601.502 869.484 595.979C869.484 590.456 865.006 585.979 859.484 585.979C853.961 585.979 849.484 590.456 849.484 595.979C849.484 601.502 853.961 605.979 859.484 605.979Z" fill="#3F3D56"/>
<path id="c3" d="M909.484 629.979C915.006 629.979 919.484 625.502 919.484 619.979C919.484 614.456 915.006 609.979 909.484 609.979C903.961 609.979 899.484 614.456 899.484 619.979C899.484 625.502 903.961 629.979 909.484 629.979Z" fill="#3F3D56"/>
<path id="c4" d="M868.484 637.979C874.006 637.979 878.484 633.502 878.484 627.979C878.484 622.456 874.006 617.979 868.484 617.979C862.961 617.979 858.484 622.456 858.484 627.979C858.484 633.502 862.961 637.979 868.484 637.979Z" fill="#6C63FF"/>
<path id="c5" d="M1003.48 699.979C1009.01 699.979 1013.48 695.502 1013.48 689.979C1013.48 684.456 1009.01 679.979 1003.48 679.979C997.961 679.979 993.484 684.456 993.484 689.979C993.484 695.502 997.961 699.979 1003.48 699.979Z" fill="#3F3D56"/>
<path id="c6" d="M972.484 705.979C978.006 705.979 982.484 701.502 982.484 695.979C982.484 690.456 978.006 685.979 972.484 685.979C966.961 685.979 962.484 690.456 962.484 695.979C962.484 701.502 966.961 705.979 972.484 705.979Z" fill="#3F3D56"/>
<path id="c7" d="M998.484 730.979C1004.01 730.979 1008.48 726.502 1008.48 720.979C1008.48 715.456 1004.01 710.979 998.484 710.979C992.961 710.979 988.484 715.456 988.484 720.979C988.484 726.502 992.961 730.979 998.484 730.979Z" fill="#3F3D56"/>
<path id="c8" d="M891.484 511.979C897.006 511.979 901.484 507.502 901.484 501.979C901.484 496.456 897.006 491.979 891.484 491.979C885.961 491.979 881.484 496.456 881.484 501.979C881.484 507.502 885.961 511.979 891.484 511.979Z" fill="#3F3D56"/>
<g id="tree">
<path id="Vector_10" d="M327.263 460.862C327.263 584.471 253.779 627.632 163.132 627.632C72.4842 627.632 -1 584.471 -1 460.862C-1 337.252 163.132 180 163.132 180C163.132 180 327.263 337.251 327.263 460.862Z" fill="#00BF72"/>
<path id="Vector_11" d="M167.153 618.833L168.833 515.383L238.79 387.4L169.097 499.154L169.852 452.639L218.067 360.044L170.052 440.329L171.412 356.669L223.04 282.952L171.625 343.514L172.474 190.11L167.138 393.188L167.576 384.811L115.085 304.464L166.735 400.893L161.844 494.327L161.698 491.847L101.185 407.294L161.515 500.608L160.903 512.293L160.794 512.469L160.844 513.428L148.435 750.478H165.014L167.003 628.037L227.185 534.952L167.153 618.833Z" fill="#3F3D56"/>
<path id="Vector_12" d="M108.909 719.36C117.245 734.82 134.937 741.456 134.937 741.456C134.937 741.456 139.114 723.027 130.778 707.568C122.442 692.108 104.749 685.471 104.749 685.471C104.749 685.471 100.573 703.9 108.909 719.36Z" fill="#00BF72"/>
<path id="Vector_13" d="M114.638 714.274C129.689 723.328 135.485 741.313 135.485 741.313C135.485 741.313 116.88 744.618 101.83 735.563C86.7798 726.509 80.9835 708.523 80.9835 708.523C80.9835 708.523 99.5883 705.219 114.638 714.274Z" fill="#00BF72"/>
<path id="Vector_14" d="M103.983 757.479C103.983 757.479 108.983 736.479 143.983 743.479C178.983 750.479 183.983 757.479 183.983 757.479H103.983Z" fill="#3F3D56"/>
</g>
</g>
</g>
<g id="undraw_proud_self_1ddv 1">
<g clip-path="url(#clip1)">
<path id="Vector_15" d="M118.099 758.437C118.099 758.437 100.289 735.797 125.996 707.554L118.099 758.437Z" fill="#E6E6E6"/>
<path id="Vector_16" d="M956 757.412H68V759.412H956V757.412Z" fill="#3F3D56"/>
<path id="Vector_17" d="M741.872 513.043L761.099 587.815C761.099 587.815 761.811 640.511 766.084 661.163C770.357 681.814 784.599 731.662 784.599 731.662L801.69 734.511L798.129 664.723C798.129 664.723 798.129 622.709 794.569 613.451C791.008 604.193 783.887 509.482 783.887 509.482L741.872 513.043Z" fill="#FBBEBE"/>
<path id="Vector_18" opacity="0.1" d="M740.872 508.043L760.099 582.815C760.099 582.815 760.811 635.511 765.084 656.163C769.357 676.814 783.599 726.662 783.599 726.662L800.69 729.511L797.129 659.723C797.129 659.723 797.129 617.709 793.569 608.451C790.008 599.193 782.887 504.482 782.887 504.482L740.872 508.043Z" fill="black"/>
<path id="Vector_19" d="M795.179 199.643H795.179C771.442 199.643 752.199 220.998 752.199 247.341V280.809H762.493L768.452 268.409L766.962 280.809H833.125L838.542 269.536L837.188 280.809H844.637V254.53C844.637 224.217 822.494 199.643 795.179 199.643Z" fill="#2F2E41"/>
<g id="hand1">
<path id="Vector_20" opacity="0.1" d="M730.465 316.799L724.668 323.117L724.152 446.321L710.416 504.505L738.853 507.802L754.943 390.541L751.613 330.663L730.465 316.799Z" fill="black"/>
<path id="Vector_21" d="M730.723 316.803L724.926 323.121L724.411 446.325L710.674 504.509L739.111 507.806L755.201 390.545L751.871 330.667L730.723 316.803Z" fill="#D0CDE1"/>
<path id="Vector_22" d="M713.579 500.994C713.579 500.994 704.463 537.173 715.799 540.913C727.135 544.652 724.971 501.174 724.971 501.174L713.579 500.994Z" fill="#FBBEBE"/>
</g>
<path id="Vector_23" d="M791.376 276.133C808.274 276.133 821.973 262.434 821.973 245.535C821.973 228.637 808.274 214.938 791.376 214.938C774.478 214.938 760.779 228.637 760.779 245.535C760.779 262.434 774.478 276.133 791.376 276.133Z" fill="#FBBEBE"/>
<path id="Vector_24" d="M773.834 263.894C773.834 263.894 782.809 310.401 778.729 315.297C774.65 320.192 821.973 306.322 821.973 306.322C821.973 306.322 806.471 274.501 814.63 256.55L773.834 263.894Z" fill="#FBBEBE"/>
<path id="Vector_25" d="M851.182 467.823C851.182 467.823 859.727 504.141 848.333 507.702C836.94 511.262 839.788 467.823 839.788 467.823H851.182Z" fill="#FBBEBE"/>
<g id="leg1">
<path id="Vector_26" d="M783.204 504.501C783.204 504.501 772.588 577.37 773.518 588.035C774.449 598.7 773.766 600.138 773.766 600.138C773.766 600.138 762.304 631.713 759.109 649.585C755.914 667.457 748.549 690.4 748.549 690.4C748.549 690.4 739.716 711.237 747.548 711.076C755.38 710.916 766.001 707.849 766.001 707.849C765.804 699.626 768.401 691.579 773.368 685.022C781.691 674.051 806.286 622.977 806.155 616.569C806.024 610.161 809.916 591.563 809.916 591.563L824.673 512.199L783.204 504.501Z" fill="#FBBEBE"/>
<path id="Vector_27" d="M748.993 701.754C752.127 700.389 755.572 699.897 758.963 700.329C762.208 700.81 765.514 700.047 768.22 698.193C768.22 698.193 762.523 718.844 763.235 726.678C763.948 734.511 761.099 767.98 746.145 764.42C731.19 760.859 726.917 750.178 732.614 731.662C738.311 713.147 736.887 691.784 736.887 691.784C736.887 691.784 747.28 681.049 749.205 682.5C751.129 683.951 748.993 701.754 748.993 701.754Z" fill="#2F2E41"/>
</g>
<path id="Vector_28" d="M738.829 467.662C738.829 467.662 726.723 528.904 737.404 530.328C748.086 531.753 763.041 521.071 782.268 533.177C801.495 545.283 833.54 542.434 833.54 542.434C833.54 542.434 855.616 486.177 835.677 472.647C815.737 459.117 738.829 467.662 738.829 467.662Z" fill="#2F2E41"/>
<path id="Vector_29" d="M796.705 728.102C796.705 728.102 789.584 712.435 781.038 726.678C772.493 740.92 771.781 744.481 771.781 744.481C771.781 744.481 747.569 766.556 764.66 768.693C781.75 770.829 795.281 767.98 795.281 764.42C795.281 760.859 803.826 761.571 804.538 758.723C805.25 755.875 803.114 729.526 803.114 729.526L796.705 728.102Z" fill="#2F2E41"/>
<path id="Vector_30" d="M812.728 287.657C812.728 287.657 782.819 293.354 779.258 292.642C778.456 292.501 777.645 292.415 776.831 292.385C769.867 292.068 762.962 293.781 756.953 297.314C747.037 303.075 732.258 313.326 732.258 323.263C732.258 338.218 751.485 363.854 751.485 363.854C751.485 363.854 733.683 425.096 735.107 430.793C736.531 436.49 724.425 455.717 732.258 462.126C740.092 468.535 814.864 462.126 828.394 468.535C841.924 474.944 835.515 383.081 835.515 383.081C835.515 383.081 871.833 299.763 853.318 291.93C847.327 289.395 842.156 287.457 837.902 285.995C833.806 284.585 829.47 284.006 825.147 284.291C820.825 284.577 816.603 285.721 812.728 287.657Z" fill="#FBBEBE"/>
<path id="shirt" d="M812.728 287.657C812.728 287.657 782.819 293.354 779.258 292.642C778.456 292.501 777.645 292.415 776.831 292.385C769.867 292.068 762.962 293.781 756.953 297.314C747.037 303.075 732.258 313.326 732.258 323.263C732.258 338.218 751.485 363.854 751.485 363.854C751.485 363.854 733.683 425.096 735.107 430.793C736.531 436.49 724.425 455.717 732.258 462.126C740.092 468.535 814.864 462.126 828.394 468.535C841.924 474.944 835.515 383.081 835.515 383.081C835.515 383.081 871.833 299.763 853.318 291.93C847.327 289.395 842.156 287.457 837.902 285.995C833.806 284.585 829.47 284.006 825.147 284.291C820.825 284.577 816.603 285.721 812.728 287.657Z" fill="#D0CDE1"/>
<path id="Vector_31" d="M840.5 292.642L856.84 295.343C856.84 295.343 864 302.612 864 306.172C864 309.733 862.576 463.55 860.439 468.535C858.303 473.52 834.803 471.384 834.803 471.384L839.076 383.793L840.5 292.642Z" fill="#D0CDE1"/>
<path id="Vector_32" d="M807.397 212.782C805.329 210.005 802.649 207.741 799.564 206.167C796.48 204.593 793.074 203.751 789.612 203.706H788.768C772.499 203.706 759.31 218.428 759.31 236.588V236.588H764.761L765.642 229.887L766.932 236.588H799.265L801.973 230.919L801.296 236.588H807.657C810.625 251.329 806.36 266.069 794.863 280.809H805.698L811.116 269.471L809.761 280.809H830.416L834.479 254.73C834.479 235.199 823.131 218.637 807.397 212.782Z" fill="#2F2E41"/>
<path id="Vector_33" d="M813.336 215.528C822.226 215.528 829.433 208.321 829.433 199.43C829.433 190.54 822.226 183.332 813.336 183.332C804.445 183.332 797.238 190.54 797.238 199.43C797.238 208.321 804.445 215.528 813.336 215.528Z" fill="#2F2E41"/>
</g>
</g>
<g id="phone">
<path id="Vector_34" d="M679.687 223.698H675.834V118.111C675.834 110.086 674.254 102.139 671.183 94.7248C668.113 87.3105 663.613 80.5736 657.94 74.8989C652.266 69.2243 645.531 64.7229 638.119 61.6518C630.706 58.5806 622.762 57 614.739 57H391.095C383.072 57 375.128 58.5806 367.715 61.6517C360.303 64.7229 353.568 69.2243 347.894 74.8989C342.221 80.5736 337.721 87.3105 334.651 94.7248C331.58 102.139 330 110.086 330 118.111V697.37C330 705.395 331.58 713.342 334.651 720.756C337.721 728.171 342.221 734.907 347.894 740.582C353.568 746.257 360.303 750.758 367.715 753.829C375.128 756.9 383.072 758.481 391.095 758.481H614.739C622.762 758.481 630.706 756.9 638.119 753.829C645.531 750.758 652.266 746.257 657.94 740.582C663.613 734.907 668.113 728.171 671.183 720.756C674.254 713.342 675.834 705.395 675.834 697.37V298.857H679.687V223.698Z" fill="#3F3D56"/>
<path id="Vector_35" d="M617.204 72.899H588.011C589.353 76.1912 589.866 79.7631 589.503 83.3001C589.14 86.8371 587.914 90.2307 585.931 93.1817C583.948 96.1328 581.27 98.5508 578.133 100.223C574.996 101.895 571.496 102.769 567.942 102.77H439.819C436.264 102.769 432.764 101.895 429.627 100.223C426.49 98.5508 423.812 96.1328 421.83 93.1817C419.847 90.2306 418.62 86.8371 418.257 83.3001C417.895 79.7631 418.407 76.1912 419.75 72.899H392.484C386.492 72.8989 380.559 74.0794 375.023 76.3728C369.488 78.6663 364.458 82.0279 360.222 86.2657C355.985 90.5035 352.624 95.5344 350.331 101.071C348.038 106.608 346.858 112.543 346.858 118.536V696.945C346.858 702.938 348.038 708.873 350.331 714.41C352.624 719.947 355.985 724.978 360.222 729.215C364.458 733.453 369.488 736.815 375.023 739.108C380.559 741.402 386.492 742.582 392.484 742.582H617.204C623.195 742.582 629.128 741.402 634.664 739.108C640.199 736.815 645.229 733.453 649.466 729.215C653.702 724.978 657.063 719.947 659.356 714.41C661.649 708.873 662.829 702.938 662.829 696.945V118.536C662.829 112.543 661.649 106.608 659.356 101.071C657.063 95.5344 653.702 90.5035 649.466 86.2657C645.229 82.0279 640.199 78.6663 634.664 76.3728C629.128 74.0794 623.195 72.8989 617.204 72.899Z" fill="white"/>
<path id="Vector_36" d="M564.145 460.36H607.439V449.934H564.145V460.36Z" fill="#00BF72"/>
<path id="Vector_37" d="M414.218 460.36H429.451V449.934H414.218V460.36Z" fill="#6C63FF"/>
<path id="Vector_38" d="M438.27 527.724H453.504V517.298H438.27V527.724Z" fill="#6C63FF"/>
<g id="profile">
<path id="Vector_39" d="M505.015 363.155C550.703 363.155 587.74 326.108 587.74 280.409C587.74 234.709 550.703 197.662 505.015 197.662C459.327 197.662 422.29 234.709 422.29 280.409C422.29 326.108 459.327 363.155 505.015 363.155Z" fill="#004D7A"/>
<path id="Vector_40" d="M499.106 309.036C513.792 309.036 525.696 297.128 525.696 282.439C525.696 267.75 513.792 255.842 499.106 255.842C484.421 255.842 472.516 267.75 472.516 282.439C472.516 297.128 484.421 309.036 499.106 309.036Z" fill="white"/>
<path id="Vector_41" d="M499.914 284.031C498.26 281.484 499.096 278.021 497.936 275.214C496.114 270.806 490.451 269.773 485.7 269.371C482.552 268.967 479.365 268.975 476.219 269.396C474.829 269.627 473.511 270.178 472.37 271.006C471.229 271.833 470.296 272.915 469.644 274.165C468.941 275.575 469.118 271.156 469.569 265.484C470.025 259.696 472.306 254.202 476.084 249.793C479.862 245.385 484.941 242.29 490.591 240.955C490.658 240.939 490.724 240.924 490.79 240.909C496.575 239.574 502.541 238.591 508.437 239.284C514.334 239.977 520.212 242.523 523.892 247.184C525.573 249.314 526.763 251.825 528.64 253.785C531.939 257.228 536.83 258.481 541.322 260.079C546.402 261.885 551.341 264.364 555.227 268.103C559.113 271.842 561.867 276.966 561.949 282.359C562.044 288.65 558.043 295.142 551.597 296.382C550.476 296.577 549.417 297.035 548.505 297.716C542.35 302.49 549.372 307.487 549.323 312.862C549.282 317.346 544.291 320.269 539.813 320.478C535.626 320.553 531.543 319.169 528.264 316.564C524.985 313.958 522.714 310.293 521.841 306.196C521.166 302.516 521.687 298.736 522.126 295.021C522.629 290.767 513.472 280.752 519.521 288.093C520.701 289.488 521.498 291.167 521.833 292.964C522.84 298.828 517.505 300.801 514.14 304.051C512.293 305.889 510.998 308.208 510.401 310.745C509.805 313.282 509.931 315.935 510.766 318.404C507.991 315.89 506.181 312.486 505.648 308.78C505.114 305.073 505.891 301.297 507.844 298.102C508.928 296.44 510.325 294.993 511.352 293.295C512.956 290.646 513.398 284.884 508.91 285.042C505.706 285.155 502.377 287.823 499.914 284.031Z" fill="#2F2E41"/>
</g>
<path id="Vector_42" d="M383.752 460.36H398.985V449.934H383.752V460.36Z" fill="#6C63FF"/>
<path id="Vector_43" d="M468.737 536.972H483.97V526.547H468.737V536.972Z" fill="#6C63FF"/>
<path id="Vector_44" d="M445.556 461.013L548.973 459.705L548.842 449.281L445.424 450.588L445.556 461.013Z" fill="#004D7A"/>
<path id="Vector_45" d="M515.238 495.646H411.813V506.071H515.238V495.646Z" fill="#004D7A"/>
<path id="Vector_46" d="M396.579 495.646H381.346V506.071H396.579V495.646Z" fill="#6C63FF"/>
<path id="Vector_47" d="M631.491 495.646H588.197V506.071H631.491V495.646Z" fill="#6C63FF"/>
<path id="Vector_48" d="M572.964 495.646H529.67V506.071H572.964V495.646Z" fill="#004D7A"/>
<path id="Vector_49" d="M497.6 483.616H601.025V473.191H497.6V483.616Z" fill="#00BF72"/>
<path id="Vector_50" d="M616.258 483.616H631.491V473.191H616.258V483.616Z" fill="#6C63FF"/>
<path id="Vector_51" d="M381.346 483.616H424.641V473.191H381.346V483.616Z" fill="#00BF72"/>
<path id="Vector_52" d="M439.874 483.616H483.168V473.191H439.874V483.616Z" fill="#004D7A"/>
<path id="Vector_53" d="M500.005 527.724H603.43V517.298H500.005V527.724Z" fill="#004D7A"/>
<g id="icpassword">
<rect id="Rectangle 1" x="381" y="376" width="261" height="193" fill="white"/>
<g id="Incorrect password!" filter="url(#filter0_d)">
<path d="M419.984 469H417.102V434.875H419.984V469ZM431.281 443.641L431.375 447.977C432.328 446.414 433.516 445.227 434.938 444.414C436.359 443.586 437.93 443.172 439.648 443.172C442.367 443.172 444.391 443.938 445.719 445.469C447.047 447 447.719 449.297 447.734 452.359V469H444.945V452.336C444.93 450.07 444.445 448.383 443.492 447.273C442.555 446.164 441.047 445.609 438.969 445.609C437.234 445.609 435.695 446.156 434.352 447.25C433.023 448.328 432.039 449.789 431.398 451.633V469H428.609V443.641H431.281ZM464.375 467.102C466.328 467.102 467.961 466.555 469.273 465.461C470.602 464.352 471.32 462.922 471.43 461.172H474.125C474.047 462.719 473.562 464.133 472.672 465.414C471.781 466.68 470.594 467.672 469.109 468.391C467.641 469.109 466.062 469.469 464.375 469.469C461.047 469.469 458.406 468.312 456.453 466C454.516 463.688 453.547 460.578 453.547 456.672V455.828C453.547 453.328 453.984 451.117 454.859 449.195C455.734 447.273 456.984 445.789 458.609 444.742C460.25 443.695 462.164 443.172 464.352 443.172C467.133 443.172 469.422 444 471.219 445.656C473.031 447.312 474 449.492 474.125 452.195H471.43C471.305 450.211 470.586 448.609 469.273 447.391C467.977 446.172 466.336 445.562 464.352 445.562C461.82 445.562 459.852 446.477 458.445 448.305C457.055 450.133 456.359 452.695 456.359 455.992V456.812C456.359 460.047 457.055 462.57 458.445 464.383C459.852 466.195 461.828 467.102 464.375 467.102ZM478.203 455.945C478.203 453.508 478.672 451.312 479.609 449.359C480.562 447.406 481.898 445.891 483.617 444.812C485.352 443.719 487.312 443.172 489.5 443.172C492.875 443.172 495.609 444.359 497.703 446.734C499.797 449.094 500.844 452.227 500.844 456.133V456.719C500.844 459.172 500.367 461.383 499.414 463.352C498.477 465.305 497.148 466.812 495.43 467.875C493.711 468.938 491.75 469.469 489.547 469.469C486.188 469.469 483.453 468.289 481.344 465.93C479.25 463.555 478.203 460.414 478.203 456.508V455.945ZM481.016 456.719C481.016 459.75 481.797 462.242 483.359 464.195C484.938 466.133 487 467.102 489.547 467.102C492.078 467.102 494.125 466.133 495.688 464.195C497.266 462.242 498.055 459.672 498.055 456.484V455.945C498.055 454.008 497.695 452.234 496.977 450.625C496.258 449.016 495.25 447.773 493.953 446.898C492.656 446.008 491.172 445.562 489.5 445.562C487 445.562 484.961 446.547 483.383 448.516C481.805 450.469 481.016 453.031 481.016 456.203V456.719ZM518.375 446.031C517.781 445.922 517.148 445.867 516.477 445.867C514.727 445.867 513.242 446.359 512.023 447.344C510.82 448.312 509.961 449.727 509.445 451.586V469H506.656V443.641H509.398L509.445 447.672C510.93 444.672 513.312 443.172 516.594 443.172C517.375 443.172 517.992 443.273 518.445 443.477L518.375 446.031ZM534.547 446.031C533.953 445.922 533.32 445.867 532.648 445.867C530.898 445.867 529.414 446.359 528.195 447.344C526.992 448.312 526.133 449.727 525.617 451.586V469H522.828V443.641H525.57L525.617 447.672C527.102 444.672 529.484 443.172 532.766 443.172C533.547 443.172 534.164 443.273 534.617 443.477L534.547 446.031ZM548.352 469.469C546.195 469.469 544.242 468.938 542.492 467.875C540.758 466.812 539.406 465.336 538.438 463.445C537.469 461.539 536.984 459.406 536.984 457.047V456.039C536.984 453.602 537.453 451.406 538.391 449.453C539.344 447.5 540.664 445.969 542.352 444.859C544.039 443.734 545.867 443.172 547.836 443.172C550.914 443.172 553.352 444.227 555.148 446.336C556.961 448.43 557.867 451.297 557.867 454.938V456.508H539.773V457.047C539.773 459.922 540.594 462.32 542.234 464.242C543.891 466.148 545.969 467.102 548.469 467.102C549.969 467.102 551.289 466.828 552.43 466.281C553.586 465.734 554.633 464.859 555.57 463.656L557.328 464.992C555.266 467.977 552.273 469.469 548.352 469.469ZM547.836 445.562C545.727 445.562 543.945 446.336 542.492 447.883C541.055 449.43 540.18 451.508 539.867 454.117H555.078V453.812C555 451.375 554.305 449.391 552.992 447.859C551.68 446.328 549.961 445.562 547.836 445.562ZM572.703 467.102C574.656 467.102 576.289 466.555 577.602 465.461C578.93 464.352 579.648 462.922 579.758 461.172H582.453C582.375 462.719 581.891 464.133 581 465.414C580.109 466.68 578.922 467.672 577.438 468.391C575.969 469.109 574.391 469.469 572.703 469.469C569.375 469.469 566.734 468.312 564.781 466C562.844 463.688 561.875 460.578 561.875 456.672V455.828C561.875 453.328 562.312 451.117 563.188 449.195C564.062 447.273 565.312 445.789 566.938 444.742C568.578 443.695 570.492 443.172 572.68 443.172C575.461 443.172 577.75 444 579.547 445.656C581.359 447.312 582.328 449.492 582.453 452.195H579.758C579.633 450.211 578.914 448.609 577.602 447.391C576.305 446.172 574.664 445.562 572.68 445.562C570.148 445.562 568.18 446.477 566.773 448.305C565.383 450.133 564.688 452.695 564.688 455.992V456.812C564.688 460.047 565.383 462.57 566.773 464.383C568.18 466.195 570.156 467.102 572.703 467.102ZM592.438 437.148V443.641H597.688V445.938H592.438V462.836C592.438 464.242 592.688 465.289 593.188 465.977C593.703 466.664 594.555 467.008 595.742 467.008C596.211 467.008 596.969 466.93 598.016 466.773L598.133 469.07C597.398 469.336 596.398 469.469 595.133 469.469C593.211 469.469 591.812 468.914 590.938 467.805C590.062 466.68 589.625 465.031 589.625 462.859V445.938H584.961V443.641H589.625V437.148H592.438ZM421.391 512.578C421.391 516.531 420.516 519.672 418.766 522C417.016 524.312 414.672 525.469 411.734 525.469C408.266 525.469 405.609 524.25 403.766 521.812V534.75H400.977V499.641H403.578L403.719 503.227C405.547 500.523 408.195 499.172 411.664 499.172C414.695 499.172 417.07 500.32 418.789 502.617C420.523 504.914 421.391 508.102 421.391 512.18V512.578ZM418.578 512.086C418.578 508.852 417.914 506.297 416.586 504.422C415.258 502.547 413.406 501.609 411.031 501.609C409.312 501.609 407.836 502.023 406.602 502.852C405.367 503.68 404.422 504.883 403.766 506.461V518.625C404.438 520.078 405.398 521.188 406.648 521.953C407.898 522.719 409.375 523.102 411.078 523.102C413.438 523.102 415.273 522.164 416.586 520.289C417.914 518.398 418.578 515.664 418.578 512.086ZM443.633 525C443.352 524.203 443.172 523.023 443.094 521.461C442.109 522.742 440.852 523.734 439.32 524.438C437.805 525.125 436.195 525.469 434.492 525.469C432.055 525.469 430.078 524.789 428.562 523.43C427.062 522.07 426.312 520.352 426.312 518.273C426.312 515.805 427.336 513.852 429.383 512.414C431.445 510.977 434.312 510.258 437.984 510.258H443.07V507.375C443.07 505.562 442.508 504.141 441.383 503.109C440.273 502.062 438.648 501.539 436.508 501.539C434.555 501.539 432.938 502.039 431.656 503.039C430.375 504.039 429.734 505.242 429.734 506.648L426.922 506.625C426.922 504.609 427.859 502.867 429.734 501.398C431.609 499.914 433.914 499.172 436.648 499.172C439.477 499.172 441.703 499.883 443.328 501.305C444.969 502.711 445.812 504.68 445.859 507.211V519.211C445.859 521.664 446.117 523.5 446.633 524.719V525H443.633ZM434.82 522.984C436.695 522.984 438.367 522.531 439.836 521.625C441.32 520.719 442.398 519.508 443.07 517.992V512.414H438.055C435.258 512.445 433.07 512.961 431.492 513.961C429.914 514.945 429.125 516.305 429.125 518.039C429.125 519.461 429.648 520.641 430.695 521.578C431.758 522.516 433.133 522.984 434.82 522.984ZM468.547 518.555C468.547 517.164 467.984 516.047 466.859 515.203C465.75 514.359 464.07 513.703 461.82 513.234C459.57 512.75 457.82 512.203 456.57 511.594C455.336 510.969 454.414 510.211 453.805 509.32C453.211 508.43 452.914 507.352 452.914 506.086C452.914 504.086 453.75 502.438 455.422 501.141C457.094 499.828 459.234 499.172 461.844 499.172C464.672 499.172 466.938 499.875 468.641 501.281C470.359 502.672 471.219 504.492 471.219 506.742H468.406C468.406 505.258 467.781 504.023 466.531 503.039C465.297 502.055 463.734 501.562 461.844 501.562C460 501.562 458.516 501.977 457.391 502.805C456.281 503.617 455.727 504.68 455.727 505.992C455.727 507.258 456.188 508.242 457.109 508.945C458.047 509.633 459.742 510.266 462.195 510.844C464.664 511.422 466.508 512.039 467.727 512.695C468.961 513.352 469.875 514.141 470.469 515.062C471.062 515.984 471.359 517.102 471.359 518.414C471.359 520.555 470.492 522.266 468.758 523.547C467.039 524.828 464.789 525.469 462.008 525.469C459.055 525.469 456.656 524.758 454.812 523.336C452.984 521.898 452.07 520.086 452.07 517.898H454.883C454.992 519.539 455.68 520.82 456.945 521.742C458.227 522.648 459.914 523.102 462.008 523.102C463.961 523.102 465.539 522.672 466.742 521.812C467.945 520.953 468.547 519.867 468.547 518.555ZM492.875 518.555C492.875 517.164 492.312 516.047 491.188 515.203C490.078 514.359 488.398 513.703 486.148 513.234C483.898 512.75 482.148 512.203 480.898 511.594C479.664 510.969 478.742 510.211 478.133 509.32C477.539 508.43 477.242 507.352 477.242 506.086C477.242 504.086 478.078 502.438 479.75 501.141C481.422 499.828 483.562 499.172 486.172 499.172C489 499.172 491.266 499.875 492.969 501.281C494.688 502.672 495.547 504.492 495.547 506.742H492.734C492.734 505.258 492.109 504.023 490.859 503.039C489.625 502.055 488.062 501.562 486.172 501.562C484.328 501.562 482.844 501.977 481.719 502.805C480.609 503.617 480.055 504.68 480.055 505.992C480.055 507.258 480.516 508.242 481.438 508.945C482.375 509.633 484.07 510.266 486.523 510.844C488.992 511.422 490.836 512.039 492.055 512.695C493.289 513.352 494.203 514.141 494.797 515.062C495.391 515.984 495.688 517.102 495.688 518.414C495.688 520.555 494.82 522.266 493.086 523.547C491.367 524.828 489.117 525.469 486.336 525.469C483.383 525.469 480.984 524.758 479.141 523.336C477.312 521.898 476.398 520.086 476.398 517.898H479.211C479.32 519.539 480.008 520.82 481.273 521.742C482.555 522.648 484.242 523.102 486.336 523.102C488.289 523.102 489.867 522.672 491.07 521.812C492.273 520.953 492.875 519.867 492.875 518.555ZM508.086 519.164L508.508 521.344L509.07 519.047L515.164 499.641H517.555L523.578 518.883L524.234 521.555L524.773 519.094L529.977 499.641H532.883L525.5 525H523.109L516.594 504.891L516.289 503.508L515.984 504.914L509.586 525H507.195L499.836 499.641H502.719L508.086 519.164ZM536.656 511.945C536.656 509.508 537.125 507.312 538.062 505.359C539.016 503.406 540.352 501.891 542.07 500.812C543.805 499.719 545.766 499.172 547.953 499.172C551.328 499.172 554.062 500.359 556.156 502.734C558.25 505.094 559.297 508.227 559.297 512.133V512.719C559.297 515.172 558.82 517.383 557.867 519.352C556.93 521.305 555.602 522.812 553.883 523.875C552.164 524.938 550.203 525.469 548 525.469C544.641 525.469 541.906 524.289 539.797 521.93C537.703 519.555 536.656 516.414 536.656 512.508V511.945ZM539.469 512.719C539.469 515.75 540.25 518.242 541.812 520.195C543.391 522.133 545.453 523.102 548 523.102C550.531 523.102 552.578 522.133 554.141 520.195C555.719 518.242 556.508 515.672 556.508 512.484V511.945C556.508 510.008 556.148 508.234 555.43 506.625C554.711 505.016 553.703 503.773 552.406 502.898C551.109 502.008 549.625 501.562 547.953 501.562C545.453 501.562 543.414 502.547 541.836 504.516C540.258 506.469 539.469 509.031 539.469 512.203V512.719ZM576.828 502.031C576.234 501.922 575.602 501.867 574.93 501.867C573.18 501.867 571.695 502.359 570.477 503.344C569.273 504.312 568.414 505.727 567.898 507.586V525H565.109V499.641H567.852L567.898 503.672C569.383 500.672 571.766 499.172 575.047 499.172C575.828 499.172 576.445 499.273 576.898 499.477L576.828 502.031ZM579.688 512.086C579.688 508.148 580.562 505.016 582.312 502.688C584.078 500.344 586.469 499.172 589.484 499.172C592.906 499.172 595.516 500.523 597.312 503.227V489H600.102V525H597.477L597.359 521.625C595.562 524.188 592.922 525.469 589.438 525.469C586.516 525.469 584.156 524.297 582.359 521.953C580.578 519.594 579.688 516.414 579.688 512.414V512.086ZM582.523 512.578C582.523 515.812 583.172 518.367 584.469 520.242C585.766 522.102 587.594 523.031 589.953 523.031C593.406 523.031 595.859 521.508 597.312 518.461V506.555C595.859 503.258 593.422 501.609 590 501.609C587.641 501.609 585.805 502.539 584.492 504.398C583.18 506.242 582.523 508.969 582.523 512.578ZM610.484 515.508H607.883L607.742 490.875H610.648L610.484 515.508ZM607.414 523.359C607.414 522.828 607.586 522.383 607.93 522.023C608.273 521.648 608.742 521.461 609.336 521.461C609.93 521.461 610.398 521.648 610.742 522.023C611.102 522.383 611.281 522.828 611.281 523.359C611.281 523.875 611.102 524.312 610.742 524.672C610.398 525.016 609.93 525.188 609.336 525.188C608.742 525.188 608.273 525.016 607.93 524.672C607.586 524.312 607.414 523.875 607.414 523.359Z" fill="#FC0808"/>
</g>
</g>
<g id="successLogin">
<rect id="Rectangle 1_2" x="381" y="376" width="261" height="193" fill="white"/>
<g id="succeslogin" filter="url(#filter1_d)">
<path d="M455.211 466.562H472.062V469H452.305V434.875H455.211V466.562ZM475.414 455.945C475.414 453.508 475.883 451.312 476.82 449.359C477.773 447.406 479.109 445.891 480.828 444.812C482.562 443.719 484.523 443.172 486.711 443.172C490.086 443.172 492.82 444.359 494.914 446.734C497.008 449.094 498.055 452.227 498.055 456.133V456.719C498.055 459.172 497.578 461.383 496.625 463.352C495.688 465.305 494.359 466.812 492.641 467.875C490.922 468.938 488.961 469.469 486.758 469.469C483.398 469.469 480.664 468.289 478.555 465.93C476.461 463.555 475.414 460.414 475.414 456.508V455.945ZM478.227 456.719C478.227 459.75 479.008 462.242 480.57 464.195C482.148 466.133 484.211 467.102 486.758 467.102C489.289 467.102 491.336 466.133 492.898 464.195C494.477 462.242 495.266 459.672 495.266 456.484V455.945C495.266 454.008 494.906 452.234 494.188 450.625C493.469 449.016 492.461 447.773 491.164 446.898C489.867 446.008 488.383 445.562 486.711 445.562C484.211 445.562 482.172 446.547 480.594 448.516C479.016 450.469 478.227 453.031 478.227 456.203V456.719ZM502.742 456.086C502.742 452.117 503.617 448.977 505.367 446.664C507.133 444.336 509.523 443.172 512.539 443.172C515.992 443.172 518.617 444.547 520.414 447.297L520.555 443.641H523.18V468.484C523.18 471.75 522.266 474.336 520.438 476.242C518.609 478.148 516.133 479.102 513.008 479.102C511.242 479.102 509.555 478.703 507.945 477.906C506.352 477.125 505.094 476.078 504.172 474.766L505.742 473.078C507.727 475.516 510.086 476.734 512.82 476.734C515.164 476.734 516.992 476.039 518.305 474.648C519.617 473.273 520.297 471.359 520.344 468.906V465.719C518.547 468.219 515.93 469.469 512.492 469.469C509.555 469.469 507.195 468.297 505.414 465.953C503.633 463.609 502.742 460.445 502.742 456.461V456.086ZM505.578 456.578C505.578 459.812 506.227 462.367 507.523 464.242C508.82 466.102 510.648 467.031 513.008 467.031C516.461 467.031 518.906 465.484 520.344 462.391V450.602C519.688 448.977 518.742 447.742 517.508 446.898C516.273 446.039 514.789 445.609 513.055 445.609C510.695 445.609 508.859 446.539 507.547 448.398C506.234 450.242 505.578 452.969 505.578 456.578ZM533.633 469H530.82V443.641H533.633V469ZM530.328 436.305C530.328 435.773 530.5 435.328 530.844 434.969C531.188 434.594 531.656 434.406 532.25 434.406C532.844 434.406 533.312 434.594 533.656 434.969C534.016 435.328 534.195 435.773 534.195 436.305C534.195 436.836 534.016 437.281 533.656 437.641C533.312 438 532.844 438.18 532.25 438.18C531.656 438.18 531.188 438 530.844 437.641C530.5 437.281 530.328 436.836 530.328 436.305ZM543.945 443.641L544.039 447.977C544.992 446.414 546.18 445.227 547.602 444.414C549.023 443.586 550.594 443.172 552.312 443.172C555.031 443.172 557.055 443.938 558.383 445.469C559.711 447 560.383 449.297 560.398 452.359V469H557.609V452.336C557.594 450.07 557.109 448.383 556.156 447.273C555.219 446.164 553.711 445.609 551.633 445.609C549.898 445.609 548.359 446.156 547.016 447.25C545.688 448.328 544.703 449.789 544.062 451.633V469H541.273V443.641H543.945ZM432.594 518.555C432.594 517.164 432.031 516.047 430.906 515.203C429.797 514.359 428.117 513.703 425.867 513.234C423.617 512.75 421.867 512.203 420.617 511.594C419.383 510.969 418.461 510.211 417.852 509.32C417.258 508.43 416.961 507.352 416.961 506.086C416.961 504.086 417.797 502.438 419.469 501.141C421.141 499.828 423.281 499.172 425.891 499.172C428.719 499.172 430.984 499.875 432.688 501.281C434.406 502.672 435.266 504.492 435.266 506.742H432.453C432.453 505.258 431.828 504.023 430.578 503.039C429.344 502.055 427.781 501.562 425.891 501.562C424.047 501.562 422.562 501.977 421.438 502.805C420.328 503.617 419.773 504.68 419.773 505.992C419.773 507.258 420.234 508.242 421.156 508.945C422.094 509.633 423.789 510.266 426.242 510.844C428.711 511.422 430.555 512.039 431.773 512.695C433.008 513.352 433.922 514.141 434.516 515.062C435.109 515.984 435.406 517.102 435.406 518.414C435.406 520.555 434.539 522.266 432.805 523.547C431.086 524.828 428.836 525.469 426.055 525.469C423.102 525.469 420.703 524.758 418.859 523.336C417.031 521.898 416.117 520.086 416.117 517.898H418.93C419.039 519.539 419.727 520.82 420.992 521.742C422.273 522.648 423.961 523.102 426.055 523.102C428.008 523.102 429.586 522.672 430.789 521.812C431.992 520.953 432.594 519.867 432.594 518.555ZM458.047 521.789C456.359 524.242 453.664 525.469 449.961 525.469C447.258 525.469 445.203 524.688 443.797 523.125C442.391 521.547 441.672 519.219 441.641 516.141V499.641H444.43V515.789C444.43 520.617 446.383 523.031 450.289 523.031C454.352 523.031 456.922 521.352 458 517.992V499.641H460.812V525H458.094L458.047 521.789ZM477.5 523.102C479.453 523.102 481.086 522.555 482.398 521.461C483.727 520.352 484.445 518.922 484.555 517.172H487.25C487.172 518.719 486.688 520.133 485.797 521.414C484.906 522.68 483.719 523.672 482.234 524.391C480.766 525.109 479.188 525.469 477.5 525.469C474.172 525.469 471.531 524.312 469.578 522C467.641 519.688 466.672 516.578 466.672 512.672V511.828C466.672 509.328 467.109 507.117 467.984 505.195C468.859 503.273 470.109 501.789 471.734 500.742C473.375 499.695 475.289 499.172 477.477 499.172C480.258 499.172 482.547 500 484.344 501.656C486.156 503.312 487.125 505.492 487.25 508.195H484.555C484.43 506.211 483.711 504.609 482.398 503.391C481.102 502.172 479.461 501.562 477.477 501.562C474.945 501.562 472.977 502.477 471.57 504.305C470.18 506.133 469.484 508.695 469.484 511.992V512.812C469.484 516.047 470.18 518.57 471.57 520.383C472.977 522.195 474.953 523.102 477.5 523.102ZM502.25 523.102C504.203 523.102 505.836 522.555 507.148 521.461C508.477 520.352 509.195 518.922 509.305 517.172H512C511.922 518.719 511.438 520.133 510.547 521.414C509.656 522.68 508.469 523.672 506.984 524.391C505.516 525.109 503.938 525.469 502.25 525.469C498.922 525.469 496.281 524.312 494.328 522C492.391 519.688 491.422 516.578 491.422 512.672V511.828C491.422 509.328 491.859 507.117 492.734 505.195C493.609 503.273 494.859 501.789 496.484 500.742C498.125 499.695 500.039 499.172 502.227 499.172C505.008 499.172 507.297 500 509.094 501.656C510.906 503.312 511.875 505.492 512 508.195H509.305C509.18 506.211 508.461 504.609 507.148 503.391C505.852 502.172 504.211 501.562 502.227 501.562C499.695 501.562 497.727 502.477 496.32 504.305C494.93 506.133 494.234 508.695 494.234 511.992V512.812C494.234 516.047 494.93 518.57 496.32 520.383C497.727 522.195 499.703 523.102 502.25 523.102ZM527.445 525.469C525.289 525.469 523.336 524.938 521.586 523.875C519.852 522.812 518.5 521.336 517.531 519.445C516.562 517.539 516.078 515.406 516.078 513.047V512.039C516.078 509.602 516.547 507.406 517.484 505.453C518.438 503.5 519.758 501.969 521.445 500.859C523.133 499.734 524.961 499.172 526.93 499.172C530.008 499.172 532.445 500.227 534.242 502.336C536.055 504.43 536.961 507.297 536.961 510.938V512.508H518.867V513.047C518.867 515.922 519.688 518.32 521.328 520.242C522.984 522.148 525.062 523.102 527.562 523.102C529.062 523.102 530.383 522.828 531.523 522.281C532.68 521.734 533.727 520.859 534.664 519.656L536.422 520.992C534.359 523.977 531.367 525.469 527.445 525.469ZM526.93 501.562C524.82 501.562 523.039 502.336 521.586 503.883C520.148 505.43 519.273 507.508 518.961 510.117H534.172V509.812C534.094 507.375 533.398 505.391 532.086 503.859C530.773 502.328 529.055 501.562 526.93 501.562ZM557.609 518.555C557.609 517.164 557.047 516.047 555.922 515.203C554.812 514.359 553.133 513.703 550.883 513.234C548.633 512.75 546.883 512.203 545.633 511.594C544.398 510.969 543.477 510.211 542.867 509.32C542.273 508.43 541.977 507.352 541.977 506.086C541.977 504.086 542.812 502.438 544.484 501.141C546.156 499.828 548.297 499.172 550.906 499.172C553.734 499.172 556 499.875 557.703 501.281C559.422 502.672 560.281 504.492 560.281 506.742H557.469C557.469 505.258 556.844 504.023 555.594 503.039C554.359 502.055 552.797 501.562 550.906 501.562C549.062 501.562 547.578 501.977 546.453 502.805C545.344 503.617 544.789 504.68 544.789 505.992C544.789 507.258 545.25 508.242 546.172 508.945C547.109 509.633 548.805 510.266 551.258 510.844C553.727 511.422 555.57 512.039 556.789 512.695C558.023 513.352 558.938 514.141 559.531 515.062C560.125 515.984 560.422 517.102 560.422 518.414C560.422 520.555 559.555 522.266 557.82 523.547C556.102 524.828 553.852 525.469 551.07 525.469C548.117 525.469 545.719 524.758 543.875 523.336C542.047 521.898 541.133 520.086 541.133 517.898H543.945C544.055 519.539 544.742 520.82 546.008 521.742C547.289 522.648 548.977 523.102 551.07 523.102C553.023 523.102 554.602 522.672 555.805 521.812C557.008 520.953 557.609 519.867 557.609 518.555ZM581.938 518.555C581.938 517.164 581.375 516.047 580.25 515.203C579.141 514.359 577.461 513.703 575.211 513.234C572.961 512.75 571.211 512.203 569.961 511.594C568.727 510.969 567.805 510.211 567.195 509.32C566.602 508.43 566.305 507.352 566.305 506.086C566.305 504.086 567.141 502.438 568.812 501.141C570.484 499.828 572.625 499.172 575.234 499.172C578.062 499.172 580.328 499.875 582.031 501.281C583.75 502.672 584.609 504.492 584.609 506.742H581.797C581.797 505.258 581.172 504.023 579.922 503.039C578.688 502.055 577.125 501.562 575.234 501.562C573.391 501.562 571.906 501.977 570.781 502.805C569.672 503.617 569.117 504.68 569.117 505.992C569.117 507.258 569.578 508.242 570.5 508.945C571.438 509.633 573.133 510.266 575.586 510.844C578.055 511.422 579.898 512.039 581.117 512.695C582.352 513.352 583.266 514.141 583.859 515.062C584.453 515.984 584.75 517.102 584.75 518.414C584.75 520.555 583.883 522.266 582.148 523.547C580.43 524.828 578.18 525.469 575.398 525.469C572.445 525.469 570.047 524.758 568.203 523.336C566.375 521.898 565.461 520.086 565.461 517.898H568.273C568.383 519.539 569.07 520.82 570.336 521.742C571.617 522.648 573.305 523.102 575.398 523.102C577.352 523.102 578.93 522.672 580.133 521.812C581.336 520.953 581.938 519.867 581.938 518.555ZM594.078 515.508H591.477L591.336 490.875H594.242L594.078 515.508ZM591.008 523.359C591.008 522.828 591.18 522.383 591.523 522.023C591.867 521.648 592.336 521.461 592.93 521.461C593.523 521.461 593.992 521.648 594.336 522.023C594.695 522.383 594.875 522.828 594.875 523.359C594.875 523.875 594.695 524.312 594.336 524.672C593.992 525.016 593.523 525.188 592.93 525.188C592.336 525.188 591.867 525.016 591.523 524.672C591.18 524.312 591.008 523.875 591.008 523.359Z" fill="#004D7A"/>
</g>
</g>
<g id="notfpass">
<rect id="Rectangle 1_3" x="381" y="376" width="261" height="193" fill="white"/>
<g id="idf" filter="url(#filter2_d)">
<path d="M424.016 452.641H408.055V466.562H426.406V469H405.172V434.875H426.289V437.336H408.055V450.203H424.016V452.641ZM440.562 455.125H429.336V452.758H440.562V455.125ZM450.055 434.875L462.641 464.992L475.273 434.875H479.117V469H476.234V454.141L476.469 438.906L463.766 469H461.539L448.883 439.023L449.117 454.047V469H446.234V434.875H450.055ZM503.117 469C502.836 468.203 502.656 467.023 502.578 465.461C501.594 466.742 500.336 467.734 498.805 468.438C497.289 469.125 495.68 469.469 493.977 469.469C491.539 469.469 489.562 468.789 488.047 467.43C486.547 466.07 485.797 464.352 485.797 462.273C485.797 459.805 486.82 457.852 488.867 456.414C490.93 454.977 493.797 454.258 497.469 454.258H502.555V451.375C502.555 449.562 501.992 448.141 500.867 447.109C499.758 446.062 498.133 445.539 495.992 445.539C494.039 445.539 492.422 446.039 491.141 447.039C489.859 448.039 489.219 449.242 489.219 450.648L486.406 450.625C486.406 448.609 487.344 446.867 489.219 445.398C491.094 443.914 493.398 443.172 496.133 443.172C498.961 443.172 501.188 443.883 502.812 445.305C504.453 446.711 505.297 448.68 505.344 451.211V463.211C505.344 465.664 505.602 467.5 506.117 468.719V469H503.117ZM494.305 466.984C496.18 466.984 497.852 466.531 499.32 465.625C500.805 464.719 501.883 463.508 502.555 461.992V456.414H497.539C494.742 456.445 492.555 456.961 490.977 457.961C489.398 458.945 488.609 460.305 488.609 462.039C488.609 463.461 489.133 464.641 490.18 465.578C491.242 466.516 492.617 466.984 494.305 466.984ZM515.984 469H513.172V443.641H515.984V469ZM512.68 436.305C512.68 435.773 512.852 435.328 513.195 434.969C513.539 434.594 514.008 434.406 514.602 434.406C515.195 434.406 515.664 434.594 516.008 434.969C516.367 435.328 516.547 435.773 516.547 436.305C516.547 436.836 516.367 437.281 516.008 437.641C515.664 438 515.195 438.18 514.602 438.18C514.008 438.18 513.539 438 513.195 437.641C512.852 437.281 512.68 436.836 512.68 436.305ZM526.766 469H523.953V433H526.766V469ZM548.75 443.641L548.844 447.977C549.797 446.414 550.984 445.227 552.406 444.414C553.828 443.586 555.398 443.172 557.117 443.172C559.836 443.172 561.859 443.938 563.188 445.469C564.516 447 565.188 449.297 565.203 452.359V469H562.414V452.336C562.398 450.07 561.914 448.383 560.961 447.273C560.023 446.164 558.516 445.609 556.438 445.609C554.703 445.609 553.164 446.156 551.82 447.25C550.492 448.328 549.508 449.789 548.867 451.633V469H546.078V443.641H548.75ZM570.922 455.945C570.922 453.508 571.391 451.312 572.328 449.359C573.281 447.406 574.617 445.891 576.336 444.812C578.07 443.719 580.031 443.172 582.219 443.172C585.594 443.172 588.328 444.359 590.422 446.734C592.516 449.094 593.562 452.227 593.562 456.133V456.719C593.562 459.172 593.086 461.383 592.133 463.352C591.195 465.305 589.867 466.812 588.148 467.875C586.43 468.938 584.469 469.469 582.266 469.469C578.906 469.469 576.172 468.289 574.062 465.93C571.969 463.555 570.922 460.414 570.922 456.508V455.945ZM573.734 456.719C573.734 459.75 574.516 462.242 576.078 464.195C577.656 466.133 579.719 467.102 582.266 467.102C584.797 467.102 586.844 466.133 588.406 464.195C589.984 462.242 590.773 459.672 590.773 456.484V455.945C590.773 454.008 590.414 452.234 589.695 450.625C588.977 449.016 587.969 447.773 586.672 446.898C585.375 446.008 583.891 445.562 582.219 445.562C579.719 445.562 577.68 446.547 576.102 448.516C574.523 450.469 573.734 453.031 573.734 456.203V456.719ZM603.734 437.148V443.641H608.984V445.938H603.734V462.836C603.734 464.242 603.984 465.289 604.484 465.977C605 466.664 605.852 467.008 607.039 467.008C607.508 467.008 608.266 466.93 609.312 466.773L609.43 469.07C608.695 469.336 607.695 469.469 606.43 469.469C604.508 469.469 603.109 468.914 602.234 467.805C601.359 466.68 600.922 465.031 600.922 462.859V445.938H596.258V443.641H600.922V437.148H603.734ZM416.562 502.031C415.969 501.922 415.336 501.867 414.664 501.867C412.914 501.867 411.43 502.359 410.211 503.344C409.008 504.312 408.148 505.727 407.633 507.586V525H404.844V499.641H407.586L407.633 503.672C409.117 500.672 411.5 499.172 414.781 499.172C415.562 499.172 416.18 499.273 416.633 499.477L416.562 502.031ZM430.367 525.469C428.211 525.469 426.258 524.938 424.508 523.875C422.773 522.812 421.422 521.336 420.453 519.445C419.484 517.539 419 515.406 419 513.047V512.039C419 509.602 419.469 507.406 420.406 505.453C421.359 503.5 422.68 501.969 424.367 500.859C426.055 499.734 427.883 499.172 429.852 499.172C432.93 499.172 435.367 500.227 437.164 502.336C438.977 504.43 439.883 507.297 439.883 510.938V512.508H421.789V513.047C421.789 515.922 422.609 518.32 424.25 520.242C425.906 522.148 427.984 523.102 430.484 523.102C431.984 523.102 433.305 522.828 434.445 522.281C435.602 521.734 436.648 520.859 437.586 519.656L439.344 520.992C437.281 523.977 434.289 525.469 430.367 525.469ZM429.852 501.562C427.742 501.562 425.961 502.336 424.508 503.883C423.07 505.43 422.195 507.508 421.883 510.117H437.094V509.812C437.016 507.375 436.32 505.391 435.008 503.859C433.695 502.328 431.977 501.562 429.852 501.562ZM444.219 512.086C444.219 508.117 445.094 504.977 446.844 502.664C448.609 500.336 451 499.172 454.016 499.172C457.469 499.172 460.094 500.547 461.891 503.297L462.031 499.641H464.656V524.484C464.656 527.75 463.742 530.336 461.914 532.242C460.086 534.148 457.609 535.102 454.484 535.102C452.719 535.102 451.031 534.703 449.422 533.906C447.828 533.125 446.57 532.078 445.648 530.766L447.219 529.078C449.203 531.516 451.562 532.734 454.297 532.734C456.641 532.734 458.469 532.039 459.781 530.648C461.094 529.273 461.773 527.359 461.82 524.906V521.719C460.023 524.219 457.406 525.469 453.969 525.469C451.031 525.469 448.672 524.297 446.891 521.953C445.109 519.609 444.219 516.445 444.219 512.461V512.086ZM447.055 512.578C447.055 515.812 447.703 518.367 449 520.242C450.297 522.102 452.125 523.031 454.484 523.031C457.938 523.031 460.383 521.484 461.82 518.391V506.602C461.164 504.977 460.219 503.742 458.984 502.898C457.75 502.039 456.266 501.609 454.531 501.609C452.172 501.609 450.336 502.539 449.023 504.398C447.711 506.242 447.055 508.969 447.055 512.578ZM475.109 525H472.297V499.641H475.109V525ZM471.805 492.305C471.805 491.773 471.977 491.328 472.32 490.969C472.664 490.594 473.133 490.406 473.727 490.406C474.32 490.406 474.789 490.594 475.133 490.969C475.492 491.328 475.672 491.773 475.672 492.305C475.672 492.836 475.492 493.281 475.133 493.641C474.789 494 474.32 494.18 473.727 494.18C473.133 494.18 472.664 494 472.32 493.641C471.977 493.281 471.805 492.836 471.805 492.305ZM497.938 518.555C497.938 517.164 497.375 516.047 496.25 515.203C495.141 514.359 493.461 513.703 491.211 513.234C488.961 512.75 487.211 512.203 485.961 511.594C484.727 510.969 483.805 510.211 483.195 509.32C482.602 508.43 482.305 507.352 482.305 506.086C482.305 504.086 483.141 502.438 484.812 501.141C486.484 499.828 488.625 499.172 491.234 499.172C494.062 499.172 496.328 499.875 498.031 501.281C499.75 502.672 500.609 504.492 500.609 506.742H497.797C497.797 505.258 497.172 504.023 495.922 503.039C494.688 502.055 493.125 501.562 491.234 501.562C489.391 501.562 487.906 501.977 486.781 502.805C485.672 503.617 485.117 504.68 485.117 505.992C485.117 507.258 485.578 508.242 486.5 508.945C487.438 509.633 489.133 510.266 491.586 510.844C494.055 511.422 495.898 512.039 497.117 512.695C498.352 513.352 499.266 514.141 499.859 515.062C500.453 515.984 500.75 517.102 500.75 518.414C500.75 520.555 499.883 522.266 498.148 523.547C496.43 524.828 494.18 525.469 491.398 525.469C488.445 525.469 486.047 524.758 484.203 523.336C482.375 521.898 481.461 520.086 481.461 517.898H484.273C484.383 519.539 485.07 520.82 486.336 521.742C487.617 522.648 489.305 523.102 491.398 523.102C493.352 523.102 494.93 522.672 496.133 521.812C497.336 520.953 497.938 519.867 497.938 518.555ZM511.438 493.148V499.641H516.688V501.938H511.438V518.836C511.438 520.242 511.688 521.289 512.188 521.977C512.703 522.664 513.555 523.008 514.742 523.008C515.211 523.008 515.969 522.93 517.016 522.773L517.133 525.07C516.398 525.336 515.398 525.469 514.133 525.469C512.211 525.469 510.812 524.914 509.938 523.805C509.062 522.68 508.625 521.031 508.625 518.859V501.938H503.961V499.641H508.625V493.148H511.438ZM532.32 525.469C530.164 525.469 528.211 524.938 526.461 523.875C524.727 522.812 523.375 521.336 522.406 519.445C521.438 517.539 520.953 515.406 520.953 513.047V512.039C520.953 509.602 521.422 507.406 522.359 505.453C523.312 503.5 524.633 501.969 526.32 500.859C528.008 499.734 529.836 499.172 531.805 499.172C534.883 499.172 537.32 500.227 539.117 502.336C540.93 504.43 541.836 507.297 541.836 510.938V512.508H523.742V513.047C523.742 515.922 524.562 518.32 526.203 520.242C527.859 522.148 529.938 523.102 532.438 523.102C533.938 523.102 535.258 522.828 536.398 522.281C537.555 521.734 538.602 520.859 539.539 519.656L541.297 520.992C539.234 523.977 536.242 525.469 532.32 525.469ZM531.805 501.562C529.695 501.562 527.914 502.336 526.461 503.883C525.023 505.43 524.148 507.508 523.836 510.117H539.047V509.812C538.969 507.375 538.273 505.391 536.961 503.859C535.648 502.328 533.93 501.562 531.805 501.562ZM559.016 502.031C558.422 501.922 557.789 501.867 557.117 501.867C555.367 501.867 553.883 502.359 552.664 503.344C551.461 504.312 550.602 505.727 550.086 507.586V525H547.297V499.641H550.039L550.086 503.672C551.57 500.672 553.953 499.172 557.234 499.172C558.016 499.172 558.633 499.273 559.086 499.477L559.016 502.031ZM572.82 525.469C570.664 525.469 568.711 524.938 566.961 523.875C565.227 522.812 563.875 521.336 562.906 519.445C561.938 517.539 561.453 515.406 561.453 513.047V512.039C561.453 509.602 561.922 507.406 562.859 505.453C563.812 503.5 565.133 501.969 566.82 500.859C568.508 499.734 570.336 499.172 572.305 499.172C575.383 499.172 577.82 500.227 579.617 502.336C581.43 504.43 582.336 507.297 582.336 510.938V512.508H564.242V513.047C564.242 515.922 565.062 518.32 566.703 520.242C568.359 522.148 570.438 523.102 572.938 523.102C574.438 523.102 575.758 522.828 576.898 522.281C578.055 521.734 579.102 520.859 580.039 519.656L581.797 520.992C579.734 523.977 576.742 525.469 572.82 525.469ZM572.305 501.562C570.195 501.562 568.414 502.336 566.961 503.883C565.523 505.43 564.648 507.508 564.336 510.117H579.547V509.812C579.469 507.375 578.773 505.391 577.461 503.859C576.148 502.328 574.43 501.562 572.305 501.562ZM586.672 512.086C586.672 508.148 587.547 505.016 589.297 502.688C591.062 500.344 593.453 499.172 596.469 499.172C599.891 499.172 602.5 500.523 604.297 503.227V489H607.086V525H604.461L604.344 521.625C602.547 524.188 599.906 525.469 596.422 525.469C593.5 525.469 591.141 524.297 589.344 521.953C587.562 519.594 586.672 516.414 586.672 512.414V512.086ZM589.508 512.578C589.508 515.812 590.156 518.367 591.453 520.242C592.75 522.102 594.578 523.031 596.938 523.031C600.391 523.031 602.844 521.508 604.297 518.461V506.555C602.844 503.258 600.406 501.609 596.984 501.609C594.625 501.609 592.789 502.539 591.477 504.398C590.164 506.242 589.508 508.969 589.508 512.578Z" fill="#FC0808"/>
</g>
</g>
</g>
<g id="PopUp">
<ellipse id="Ellipse 1" cx="893" cy="181.5" rx="50" ry="55.5" fill="#FB0606"/>
<path id="Polygon 1" d="M844.297 250.229L864.066 195.775L887.098 211.188L844.297 250.229Z" fill="#FF0202"/>
<g id="excla">
<rect id="Rectangle 2" x="889" y="145" width="10" height="44" fill="#FCF7F7"/>
<rect id="Rectangle 3" x="889" y="195" width="10" height="15" fill="white"/>
</g>
<path id="question" d="M888.828 193.062C888.891 189.375 889.391 186.406 890.328 184.156C891.266 181.906 893.281 179.266 896.375 176.234C899.469 173.172 901.453 171.016 902.328 169.766C903.234 168.484 903.922 167.094 904.391 165.594C904.891 164.062 905.141 162.328 905.141 160.391C905.141 156.484 904.094 153.422 902 151.203C899.938 148.953 897.047 147.828 893.328 147.828C889.578 147.828 886.547 148.906 884.234 151.062C881.953 153.188 880.781 156.078 880.719 159.734H875.141C875.203 154.609 876.938 150.516 880.344 147.453C883.75 144.359 888.078 142.812 893.328 142.812C898.703 142.812 902.938 144.391 906.031 147.547C909.156 150.672 910.719 154.922 910.719 160.297C910.719 163.672 909.953 166.844 908.422 169.812C906.891 172.75 903.984 176.188 899.703 180.125C896.172 183.094 894.406 187.406 894.406 193.062H888.828ZM888.078 208.719C888.078 207.656 888.406 206.766 889.062 206.047C889.75 205.297 890.703 204.922 891.922 204.922C893.109 204.922 894.047 205.297 894.734 206.047C895.453 206.766 895.812 207.656 895.812 208.719C895.812 209.75 895.453 210.625 894.734 211.344C894.047 212.031 893.109 212.375 891.922 212.375C890.703 212.375 889.75 212.031 889.062 211.344C888.406 210.625 888.078 209.75 888.078 208.719Z" fill="#FFF8F8"/>
</g>
<g id="emoji 1">
<path id="Polygon 1_2" d="M845.297 249.229L865.066 194.775L888.098 210.188L845.297 249.229Z" fill="#FFD93B"/>
<path id="Vector_54" d="M900 231C928.167 231 951 210.853 951 186C951 161.147 928.167 141 900 141C871.833 141 849 161.147 849 186C849 210.853 871.833 231 900 231Z" fill="#FFD93B"/>
<path id="Vector_55" d="M918.762 187.718C923.182 187.718 926.765 184.557 926.765 180.656C926.765 176.756 923.182 173.594 918.762 173.594C914.341 173.594 910.758 176.756 910.758 180.656C910.758 184.557 914.341 187.718 918.762 187.718Z" fill="#3E4347"/>
<path id="Vector_56" d="M921.668 176.262C920.445 175.784 919.169 175.962 918.818 176.661C918.466 177.359 919.173 178.314 920.396 178.792C921.619 179.271 922.895 179.092 923.246 178.394C923.597 177.695 922.891 176.741 921.668 176.262Z" fill="#5A5F63"/>
<path id="Vector_57" d="M881.238 187.718C885.659 187.718 889.242 184.557 889.242 180.656C889.242 176.756 885.659 173.594 881.238 173.594C876.818 173.594 873.235 176.756 873.235 180.656C873.235 184.557 876.818 187.718 881.238 187.718Z" fill="#3E4347"/>
<path id="Vector_58" d="M884.142 176.261C882.919 175.783 881.643 175.961 881.292 176.66C880.941 177.358 881.648 178.312 882.871 178.791C884.094 179.27 885.37 179.091 885.721 178.393C886.072 177.694 885.365 176.74 884.142 176.261Z" fill="#5A5F63"/>
<path id="Vector_59" d="M879.109 203.764C878.146 202.965 878.102 201.629 879.007 200.782C879.912 199.936 881.423 199.894 882.386 200.692C892.264 208.897 907.736 208.897 917.614 200.692C918.577 199.894 920.088 199.936 920.993 200.782C921.898 201.632 921.853 202.965 920.891 203.764C909.177 213.495 890.823 213.495 879.109 203.764Z" fill="#3E4347"/>
</g>
<defs>
<filter id="filter0_d" x="396.977" y="434.875" width="218.305" height="107.875" filterUnits="userSpaceOnUse" color-interpolation-filters="sRGB">
<feFlood flood-opacity="0" result="BackgroundImageFix"/>
<feColorMatrix in="SourceAlpha" type="matrix" values="0 0 0 0 0 0 0 0 0 0 0 0 0 0 0 0 0 0 127 0"/>
<feOffset dy="4"/>
<feGaussianBlur stdDeviation="2"/>
<feColorMatrix type="matrix" values="0 0 0 0 0 0 0 0 0 0 0 0 0 0 0 0 0 0 0.25 0"/>
<feBlend mode="normal" in2="BackgroundImageFix" result="effect1_dropShadow"/>
<feBlend mode="normal" in="SourceGraphic" in2="effect1_dropShadow" result="shape"/>
</filter>
<filter id="filter1_d" x="412.117" y="434.406" width="186.758" height="99.0625" filterUnits="userSpaceOnUse" color-interpolation-filters="sRGB">
<feFlood flood-opacity="0" result="BackgroundImageFix"/>
<feColorMatrix in="SourceAlpha" type="matrix" values="0 0 0 0 0 0 0 0 0 0 0 0 0 0 0 0 0 0 127 0"/>
<feOffset dy="4"/>
<feGaussianBlur stdDeviation="2"/>
<feColorMatrix type="matrix" values="0 0 0 0 0 0 0 0 0 0 0 0 0 0 0 0 0 0 0.25 0"/>
<feBlend mode="normal" in2="BackgroundImageFix" result="effect1_dropShadow"/>
<feBlend mode="normal" in="SourceGraphic" in2="effect1_dropShadow" result="shape"/>
</filter>
<filter id="filter2_d" x="400.844" y="433" width="212.586" height="110.102" filterUnits="userSpaceOnUse" color-interpolation-filters="sRGB">
<feFlood flood-opacity="0" result="BackgroundImageFix"/>
<feColorMatrix in="SourceAlpha" type="matrix" values="0 0 0 0 0 0 0 0 0 0 0 0 0 0 0 0 0 0 127 0"/>
<feOffset dy="4"/>
<feGaussianBlur stdDeviation="2"/>
<feColorMatrix type="matrix" values="0 0 0 0 0 0 0 0 0 0 0 0 0 0 0 0 0 0 0.25 0"/>
<feBlend mode="normal" in2="BackgroundImageFix" result="effect1_dropShadow"/>
<feBlend mode="normal" in="SourceGraphic" in2="effect1_dropShadow" result="shape"/>
</filter>
<clipPath id="clip0">
<rect y="114" width="1038.48" height="784.406" fill="white"/>
</clipPath>
<clipPath id="clip1">
<rect x="68" width="888" height="769.428" fill="white"/>
</clipPath>
</defs>
</svg>
