<svg width="1153" height="1324" viewBox="0 0 1153 1324" fill="none" xmlns="http://www.w3.org/2000/svg">
<defs>
    <linearGradient id="grad1" y1="0%" x1="0%" y2="25%" y3="50%" y4="75%" y5="100%" x2="0%" x3="0%" x4="0%" x5="0%">
      <stop offset="0%" style="stop-color:#004d7a;stop-opacity:1" />
      <stop offset="25%" style="stop-color:#004d7a;stop-opacity:1" />
      <stop offset="50%" style="stop-color:#004d7a;stop-opacity:1" />
      <stop offset="75%" style="stop-color:#008793;stop-opacity:1" />
      <stop offset="100%" style="stop-color:#00bf72;stop-opacity:1" />
    </linearGradient>
  </defs>
<rect y="50.0973" width="1153" height="1273.9" fill="url(#grad1)"/>
<path fill-rule="evenodd" clip-rule="evenodd" d="M0 0L11.53 2.17353C11.53 4.34707 34.59 8.69413 46.12 10.8677C57.65 10.8677 80.71 8.69413 92.24 15.2147C103.77 19.5618 126.83 32.603 138.36 36.9501C149.89 39.1236 172.95 32.603 184.48 26.0824C196.01 17.3883 219.07 8.69413 230.6 8.69413C242.13 8.69413 265.19 17.3883 276.72 21.7353C288.25 23.9089 311.31 21.7353 322.84 19.5618C334.37 15.2147 357.43 10.8677 368.96 13.0412C380.49 13.0412 403.55 19.5618 415.08 21.7353C426.61 21.7353 449.67 17.3883 461.2 15.2147C472.73 13.0412 495.79 13.0412 507.32 13.0412C518.85 13.0412 541.91 13.0412 553.44 21.7353C564.97 28.2559 588.03 43.4707 599.56 43.4707C611.09 41.2971 634.15 23.9089 645.68 15.2147C657.21 6.5206 680.27 6.5206 691.8 13.0412C703.33 17.3883 726.39 28.2559 737.92 28.2559C749.45 28.2559 772.51 17.3883 784.04 13.0412C795.57 6.5206 818.63 6.5206 830.16 8.69413C841.69 8.69413 864.75 10.8677 876.28 15.2147C887.81 17.3883 910.87 21.7353 922.4 23.9089C933.93 23.9089 956.99 21.7353 968.52 19.5618C980.05 17.3883 1003.11 15.2147 1014.64 19.5618C1026.17 21.7353 1049.23 30.4295 1060.76 34.7765C1072.29 36.9501 1095.35 34.7765 1106.88 28.2559C1118.41 21.7353 1141.47 10.8677 1141.47 6.5206L1153 0V58.6854H1141.47C1141.47 58.6854 1118.41 58.6854 1106.88 58.6854C1095.35 58.6854 1072.29 58.6854 1060.76 58.6854C1049.23 58.6854 1026.17 58.6854 1014.64 58.6854C1003.11 58.6854 980.05 58.6854 968.52 58.6854C956.99 58.6854 933.93 58.6854 922.4 58.6854C910.87 58.6854 887.81 58.6854 876.28 58.6854C864.75 58.6854 841.69 58.6854 830.16 58.6854C818.63 58.6854 795.57 58.6854 784.04 58.6854C772.51 58.6854 749.45 58.6854 737.92 58.6854C726.39 58.6854 703.33 58.6854 691.8 58.6854C680.27 58.6854 657.21 58.6854 645.68 58.6854C634.15 58.6854 611.09 58.6854 599.56 58.6854C588.03 58.6854 564.97 58.6854 553.44 58.6854C541.91 58.6854 518.85 58.6854 507.32 58.6854C495.79 58.6854 472.73 58.6854 461.2 58.6854C449.67 58.6854 426.61 58.6854 415.08 58.6854C403.55 58.6854 380.49 58.6854 368.96 58.6854C357.43 58.6854 334.37 58.6854 322.84 58.6854C311.31 58.6854 288.25 58.6854 276.72 58.6854C265.19 58.6854 242.13 58.6854 230.6 58.6854C219.07 58.6854 196.01 58.6854 184.48 58.6854C172.95 58.6854 149.89 58.6854 138.36 58.6854C126.83 58.6854 103.77 58.6854 92.24 58.6854C80.71 58.6854 57.65 58.6854 46.12 58.6854C34.59 58.6854 11.53 58.6854 11.53 58.6854H0V0Z" fill="#004D7A"/>
</svg>
